<svg xmlns="http://www.w3.org/2000/svg" viewBox="0 0 512 512">
  <defs>
    <linearGradient id="bg01" x1="0" y1="0" x2="0" y2="1">
      <stop offset="0%" stop-color="#0a1d36"/>
      <stop offset="100%" stop-color="#1c4373"/>
    </linearGradient>
    <radialGradient id="vig01" cx="50%" cy="50%" r="55%">
      <stop offset="60%" stop-color="transparent"/>
      <stop offset="100%" stop-color="#000" stop-opacity="0.35"/>
    </radialGradient>
  </defs>
  <rect width="512" height="512" fill="url(#bg01)"/>
  <rect width="512" height="512" fill="url(#vig01)"/>
  <g transform="translate(98.5,98.5) scale(0.3)"><path fill="#ffffff" fill-rule="evenodd" d="M620.0 467.5 L614.5 415.0 L642.0 395.5 L644.0 392.5 L614.0 410.5 L575.0 395.5 L551.0 390.5 L521.0 390.5 L503.0 395.5 L493.0 401.5 L484.5 410.0 L478.5 421.0 L475.5 434.0 L477.0 452.5 L469.5 442.0 L465.5 429.0 L466.5 406.0 L473.5 389.0 L477.5 383.0 L490.0 370.5 L499.0 364.5 L507.0 360.5 L525.0 355.5 L546.0 354.5 L565.0 356.5 L591.0 362.5 L627.0 374.5 L647.0 375.5 L666.0 370.5 L678.0 364.5 L691.0 354.5 L691.5 356.0 L686.5 365.0 L620.0 467.5 Z M571.0 579.5 L546.0 568.5 L513.0 558.5 L472.0 548.5 L448.0 539.5 L423.0 525.5 L413.0 517.5 L403.5 507.0 L392.5 487.0 L388.5 473.0 L387.5 464.0 L388.5 439.0 L393.5 422.0 L402.5 406.0 L409.0 397.5 L427.0 381.5 L461.0 364.5 L477.0 359.5 L489.5 358.0 L472.0 368.5 L462.0 376.5 L449.5 390.0 L438.5 406.0 L431.5 423.0 L428.5 437.0 L428.5 456.0 L430.5 466.0 L437.5 481.0 L454.0 498.5 L473.0 512.5 L527.0 542.5 L544.0 553.5 L559.0 565.5 L571.0 579.5 Z M570.0 691.5 L565.5 691.0 L587.0 678.5 L603.5 663.0 L611.5 653.0 L619.5 639.0 L626.5 611.0 L626.5 597.0 L622.5 578.0 L616.5 566.0 L610.5 558.0 L603.0 551.5 L585.0 540.5 L558.0 530.5 L486.0 510.5 L472.0 505.5 L454.0 496.5 L448.5 491.0 L445.5 485.0 L441.5 469.0 L441.5 448.0 L443.5 437.0 L449.0 422.5 L450.5 431.0 L456.5 445.0 L469.0 458.5 L476.0 463.5 L505.0 476.5 L581.0 497.5 L620.0 513.5 L634.0 522.5 L644.5 532.0 L652.5 542.0 L660.5 556.0 L664.5 567.0 L667.5 582.0 L667.5 603.0 L662.5 624.0 L651.5 645.0 L634.0 663.5 L618.0 674.5 L596.0 684.5 L570.0 691.5 Z M355.0 676.5 L353.5 676.0 L354.5 674.0 L419.0 573.5 L440.0 595.5 L459.0 608.5 L478.0 617.5 L508.0 625.5 L539.0 626.5 L556.0 622.5 L566.0 617.5 L573.5 610.0 L576.5 603.0 L577.0 596.5 L578.5 599.0 L579.5 618.0 L577.5 627.0 L573.5 635.0 L565.0 645.5 L555.0 652.5 L546.0 656.5 L527.0 660.5 L500.0 659.5 L477.0 654.5 L456.0 647.5 L423.0 631.5 L420.0 631.5 L374.0 660.5 L355.0 676.5 Z"/></g>
</svg>