<svg xmlns="http://www.w3.org/2000/svg" viewBox="0 0 512 512">
  <defs>
    <linearGradient id="bg08" x1="0" y1="0" x2="0" y2="1">
      <stop offset="0%" stop-color="#0a1d36"/>
      <stop offset="100%" stop-color="#1c4373"/>
    </linearGradient>
  </defs>
  <rect width="512" height="512" fill="url(#bg08)"/>
  <g transform="translate(57.6,53.0) scale(0.4)" opacity="1"><path fill="#f4ecdf" fill-rule="evenodd" d="M890.0 899.5 L666.0 899.5 L661.5 862.0 L656.5 846.0 L646.5 828.0 L627.0 808.5 L614.0 801.5 L594.0 796.5 L576.0 797.5 L569.5 801.0 L585.5 816.0 L594.5 829.0 L599.5 840.0 L607.5 871.0 L607.0 899.5 L328.0 899.5 L318.0 869.5 L291.0 864.5 L269.0 856.5 L248.0 845.5 L229.0 831.5 L209.5 812.0 L193.5 789.0 L182.5 765.0 L175.5 739.0 L173.5 725.0 L173.5 695.0 L176.5 677.0 L187.5 644.0 L202.5 619.0 L188.5 608.0 L249.5 585.0 L237.5 648.0 L236.0 648.5 L222.0 635.5 L210.5 654.0 L203.5 673.0 L198.5 698.0 L198.5 722.0 L203.5 748.0 L210.5 767.0 L223.5 789.0 L248.0 814.5 L264.0 825.5 L280.0 833.5 L304.0 841.5 L314.0 842.5 L312.5 790.0 L314.5 770.0 L323.5 726.0 L333.5 696.0 L348.5 662.0 L374.5 619.0 L399.5 588.0 L419.5 568.0 L397.0 554.5 L378.5 537.0 L369.5 524.0 L360.0 503.5 L312.0 503.5 L281.0 497.5 L247.0 482.5 L226.0 466.5 L216.5 456.0 L204.5 438.0 L195.5 417.0 L189.5 383.0 L167.5 361.0 L152.5 336.0 L144.5 311.0 L141.5 291.0 L118.5 268.0 L104.5 245.0 L93.5 208.0 L90.5 183.0 L90.5 163.0 L92.0 162.5 L101.0 170.5 L121.0 182.5 L154.0 193.5 L335.0 195.5 L370.0 204.5 L393.0 216.5 L413.0 232.5 L428.5 252.0 L435.5 265.0 L442.5 284.0 L446.5 302.0 L447.5 318.0 L468.5 337.0 L479.5 352.0 L493.5 382.0 L498.5 411.0 L515.0 428.5 L530.5 393.0 L544.5 374.0 L545.5 340.0 L554.5 309.0 L582.5 259.0 L597.5 224.0 L599.5 215.0 L597.5 201.0 L581.0 182.5 L793.0 182.5 L813.0 186.5 L831.0 193.5 L856.0 210.5 L875.5 234.0 L887.5 260.0 L892.5 284.0 L892.5 306.0 L890.5 318.0 L885.5 335.0 L877.5 352.0 L856.0 380.5 L840.5 350.0 L829.0 337.5 L820.0 332.5 L808.0 329.5 L792.0 330.5 L779.0 335.5 L771.5 342.0 L786.5 359.0 L801.5 386.0 L809.5 418.0 L809.5 448.0 L805.5 467.0 L799.5 483.0 L791.5 498.0 L778.5 515.0 L778.5 549.0 L771.5 576.0 L761.5 596.0 L746.5 616.0 L746.5 672.0 L750.5 695.0 L757.5 716.0 L768.5 737.0 L781.5 754.0 L802.0 772.5 L858.0 805.5 L870.5 818.0 L879.5 831.0 L886.5 848.0 L889.5 862.0 L890.0 899.5 Z M859.5 332.0 L863.5 322.0 L867.5 301.0 L867.5 288.0 L864.5 270.0 L857.5 253.0 L846.5 237.0 L833.0 224.5 L822.0 217.5 L800.0 209.5 L779.0 207.5 L640.5 208.0 L640.5 210.0 L753.0 323.5 L766.0 313.5 L783.0 306.5 L792.0 304.5 L813.0 304.5 L828.0 308.5 L838.0 313.5 L844.0 317.5 L858.0 332.5 L859.5 332.0 Z M420.5 302.0 L412.5 275.0 L399.5 255.0 L379.0 237.5 L350.0 224.5 L329.0 220.5 L166.0 220.5 L141.0 216.5 L120.5 210.0 L124.5 228.0 L139.5 254.0 L152.0 266.5 L163.0 274.5 L182.0 284.5 L197.0 289.5 L227.0 294.5 L382.0 294.5 L420.5 302.0 Z M759.0 249.5 L715.0 249.5 L708.5 245.0 L706.5 241.0 L706.5 234.0 L712.0 226.5 L717.0 224.5 L757.0 224.5 L762.0 226.5 L767.5 233.0 L767.5 241.0 L765.5 245.0 L759.0 249.5 Z M770.5 484.0 L779.5 466.0 L784.5 445.0 L783.5 414.0 L780.5 402.0 L771.5 381.0 L764.5 371.0 L739.5 345.0 L623.0 227.5 L611.5 258.0 L599.5 279.0 L602.5 292.0 L610.5 308.0 L619.5 320.0 L744.5 447.0 L758.5 464.0 L768.5 483.0 L770.5 484.0 Z M470.5 396.0 L465.5 379.0 L451.5 356.0 L437.0 341.5 L427.0 334.5 L402.0 323.5 L378.0 319.5 L219.0 319.5 L192.0 314.5 L170.5 307.0 L176.5 328.0 L184.5 342.0 L193.5 353.0 L214.0 369.5 L232.0 378.5 L247.0 383.5 L278.0 388.5 L439.0 388.5 L470.5 396.0 Z M739.5 583.0 L747.5 568.0 L753.5 545.0 L752.5 514.0 L741.5 484.0 L725.5 463.0 L599.5 335.0 L583.0 309.5 L573.5 330.0 L569.5 351.0 L571.5 380.0 L582.5 408.0 L595.5 426.0 L715.5 548.0 L729.5 567.0 L736.5 582.0 L739.5 583.0 Z M515.5 481.0 L509.5 465.0 L496.5 445.0 L478.0 428.5 L463.0 420.5 L451.0 416.5 L431.0 413.5 L270.0 413.5 L235.0 406.5 L218.5 400.0 L218.5 405.0 L223.5 420.0 L236.5 441.0 L248.0 452.5 L261.0 461.5 L290.0 473.5 L320.0 478.5 L496.0 478.5 L515.5 481.0 Z M697.5 697.0 L710.5 681.0 L715.5 671.0 L721.5 650.0 L722.5 622.0 L715.5 594.0 L706.5 577.0 L695.5 563.0 L575.5 441.0 L562.5 424.0 L553.0 405.5 L542.5 427.0 L538.5 446.0 L538.5 468.0 L546.5 497.0 L561.5 520.0 L659.5 621.0 L680.5 654.0 L690.5 677.0 L695.5 697.0 L697.5 697.0 Z M771.5 873.0 L768.5 856.0 L757.5 837.0 L704.5 788.0 L693.5 775.0 L683.5 759.0 L675.5 737.0 L672.5 708.0 L668.5 691.0 L660.5 670.0 L645.5 644.0 L624.5 619.0 L539.5 533.0 L525.0 510.5 L492.0 503.5 L388.5 504.0 L396.5 519.0 L412.0 534.5 L430.0 545.5 L471.0 558.5 L496.0 570.5 L523.0 590.5 L548.5 619.0 L557.5 632.0 L569.5 655.0 L580.5 688.0 L585.5 721.0 L585.5 741.0 L581.0 771.5 L601.0 771.5 L615.0 774.5 L635.0 783.5 L648.0 792.5 L665.5 811.0 L675.5 827.0 L685.5 853.0 L690.0 873.5 L771.5 873.0 Z M580.5 874.0 L580.5 864.0 L575.5 848.0 L566.5 833.0 L556.0 822.5 L547.0 816.5 L532.0 810.5 L508.0 808.5 L500.5 803.0 L498.5 798.0 L500.5 789.0 L508.0 783.5 L527.0 783.5 L545.0 788.5 L553.5 772.0 L559.5 747.0 L559.5 714.0 L554.5 688.0 L544.5 661.0 L526.5 631.0 L502.0 605.5 L490.0 596.5 L470.0 585.5 L446.0 578.5 L422.5 600.0 L395.5 633.0 L376.5 663.0 L355.5 709.0 L344.5 747.0 L337.5 795.0 L338.5 836.0 L345.5 873.0 L580.5 874.0 Z M864.5 873.0 L861.5 853.0 L851.5 835.0 L833.0 819.5 L790.0 795.5 L776.0 784.5 L756.5 764.0 L743.5 745.0 L735.5 729.0 L727.5 703.0 L726.0 702.5 L721.5 709.0 L700.5 729.0 L705.5 746.0 L718.5 765.0 L737.0 783.5 L763.0 805.5 L779.5 824.0 L791.5 846.0 L797.5 873.0 L864.5 873.0 Z M936.0 1026.5 L929.5 1015.0 L924.0 1009.5 L912.5 1004.0 L924.0 997.5 L929.5 992.0 L935.0 980.5 L941.5 992.0 L947.0 997.5 L959.5 1004.0 L947.0 1009.5 L939.5 1018.0 L936.0 1026.5 Z"/></g>
</svg>